<?xml version="1.0" standalone="no"?>
<!DOCTYPE svg PUBLIC "-//W3C//DTD SVG 20010904//EN"
 "http://www.w3.org/TR/2001/REC-SVG-20010904/DTD/svg10.dtd">
<svg version="1.0" xmlns="http://www.w3.org/2000/svg"
 width="750.000000pt" height="532.000000pt" viewBox="0 0 750.000000 532.000000"
 preserveAspectRatio="xMidYMid meet">

<g transform="translate(0.000000,532.000000) scale(0.100000,-0.100000)"
fill="#000000" stroke="none">
<path d="M3042 4063 c-52 -47 -69 -60 -88 -71 -14 -9 -15 -11 -4 -12 8 0 31
14 50 31 19 17 49 42 65 55 17 13 25 24 19 24 -6 0 -24 -12 -42 -27z"/>
<path d="M2904 3949 c-10 -11 -31 -28 -46 -37 -30 -17 -47 -45 -22 -35 7 3 14
9 14 14 0 5 4 9 9 9 5 0 26 16 47 35 20 19 32 35 27 35 -5 0 -18 -9 -29 -21z"/>
<path d="M4225 3870 c-16 -7 -17 -9 -3 -9 9 -1 20 4 23 9 7 11 7 11 -20 0z"/>
<path d="M2790 3849 c0 -5 5 -7 10 -4 6 3 10 8 10 11 0 2 -4 4 -10 4 -5 0 -10
-5 -10 -11z"/>
<path d="M4039 3826 c-2 -2 -65 -18 -139 -35 -130 -30 -468 -116 -546 -141
-61 -18 -114 -42 -114 -52 0 -13 23 -10 76 11 91 35 179 60 249 71 39 6 97 20
130 30 119 37 281 83 332 94 58 13 79 26 41 26 -13 0 -27 -2 -29 -4z"/>
<path d="M3145 3595 c-5 -2 -64 -20 -130 -40 -206 -63 -497 -156 -580 -185
-44 -16 -152 -52 -240 -80 -166 -54 -307 -116 -313 -137 -4 -15 93 -19 102 -4
3 5 14 7 24 4 10 -2 38 3 62 11 25 9 54 16 65 16 11 0 33 7 49 15 15 8 34 15
41 15 7 0 18 7 25 15 7 8 20 15 30 15 9 0 34 11 54 25 20 14 48 25 62 25 14 0
38 6 52 14 59 30 121 54 207 80 250 76 434 145 516 195 32 20 32 21 9 20 -14
0 -29 -2 -35 -4z"/>
<path d="M1825 3145 c-5 -2 -22 -6 -37 -9 -16 -4 -28 -11 -28 -16 0 -14 51 -1
70 16 14 14 14 15 -5 9z"/>
<path d="M1700 3050 c0 -5 4 -10 9 -10 6 0 13 5 16 10 3 6 -1 10 -9 10 -9 0
-16 -4 -16 -10z"/>
<path d="M1593 3026 c-15 -13 -25 -27 -22 -31 11 -11 79 23 79 39 0 23 -25 19
-57 -8z"/>
<path d="M1497 3023 c-12 -11 -8 -23 7 -23 7 0 19 7 26 15 10 12 9 15 -7 15
-11 0 -23 -3 -26 -7z"/>
<path d="M1378 2959 c-22 -23 -37 -43 -34 -46 5 -6 51 23 94 59 l33 28 -27 0
c-19 0 -39 -13 -66 -41z"/>
<path d="M1280 2955 c-7 -9 -10 -18 -7 -22 8 -7 37 15 37 28 0 14 -16 11 -30
-6z"/>
<path d="M3995 2910 c-3 -6 1 -7 9 -4 18 7 21 14 7 14 -6 0 -13 -4 -16 -10z"/>
<path d="M5813 2683 c9 -2 25 -2 35 0 9 3 1 5 -18 5 -19 0 -27 -2 -17 -5z"/>
<path d="M5540 2654 c-102 -13 -241 -30 -310 -38 -69 -9 -231 -29 -360 -45
-197 -26 -642 -69 -730 -72 l-25 0 25 -11 c15 -6 69 -8 140 -4 110 6 581 61
780 91 52 8 232 33 400 55 168 22 312 42 320 44 46 11 -79 1 -240 -20z"/>
<path d="M875 2490 c3 -5 14 -10 23 -10 15 0 15 2 2 10 -20 13 -33 13 -25 0z"/>
<path d="M6345 2250 c-18 -8 -18 -9 5 -9 14 0 32 4 40 9 12 8 12 10 -5 9 -11
0 -29 -4 -40 -9z"/>
</g>
</svg>
